<?xml version="1.0" encoding="utf-8"?>
<!-- Generator: Adobe Illustrator 17.1.0, SVG Export Plug-In . SVG Version: 6.00 Build 0)  -->
<!DOCTYPE svg PUBLIC "-//W3C//DTD SVG 1.1//EN" "http://www.w3.org/Graphics/SVG/1.1/DTD/svg11.dtd">
<svg version="1.1" id="Layer_1" xmlns="http://www.w3.org/2000/svg" xmlns:xlink="http://www.w3.org/1999/xlink" x="0px" y="0px"
	 viewBox="0 0 192 192" enable-background="new 0 0 192 192" xml:space="preserve">
<circle fill="none" stroke="#F1C40F" stroke-width="4" stroke-miterlimit="10" cx="141" cy="141" r="45"/>
<rect x="6" y="96" fill="none" stroke="#F1C40F" stroke-width="4" stroke-miterlimit="10" width="90" height="90"/>
<path fill="none" stroke="#231F20" stroke-width="4" stroke-miterlimit="10" d="M32.4,159.6"/>
<path fill="none" stroke="#231F20" stroke-width="4" stroke-miterlimit="10" d="M96,96"/>
<path fill="none" stroke="#F1C40F" stroke-width="4" stroke-miterlimit="10" d="M96,6c49.7-0.1,90,40.3,90,90"/>
<circle fill="none" stroke="#231F20" stroke-width="4" stroke-miterlimit="10" cx="141" cy="51" r="45"/>
<line fill="none" stroke="#231F20" stroke-width="4" stroke-miterlimit="10" x1="186" y1="96" x2="4" y2="96"/>
<path fill="none" stroke="#231F20" stroke-width="4" stroke-miterlimit="10" d="M96,186c-49.7,0-89.9-40.3-90-90"/>
<path fill="none" stroke="#000000" stroke-width="4" stroke-miterlimit="10" d="M6,186"/>
<line fill="none" stroke="#231F20" stroke-width="4" stroke-miterlimit="10" x1="186" y1="51" x2="186" y2="98"/>
<path fill="none" stroke="#000000" stroke-width="4" stroke-miterlimit="10" d="M186,51"/>
<path fill="none" stroke="#000000" stroke-width="4" stroke-miterlimit="10" d="M186,6"/>
<path fill="none" stroke="#000000" stroke-width="4" stroke-miterlimit="10" d="M186,6"/>
<path fill="none" stroke="#000000" stroke-width="4" stroke-miterlimit="10" d="M141,6"/>
<line fill="none" stroke="#231F20" stroke-width="4" stroke-miterlimit="10" x1="96" y1="6" x2="141" y2="6"/>
<line fill="none" stroke="#231F20" stroke-width="4" stroke-miterlimit="10" x1="96" y1="4" x2="96" y2="188"/>
<circle fill="none" stroke="#231F20" stroke-width="4" stroke-miterlimit="10" cx="51" cy="51" r="45"/>
</svg>
